<mxfile host="app.diagrams.net" modified="2022-03-24T06:48:37.111Z" agent="5.0 (Windows NT 10.0; Win64; x64) AppleWebKit/537.36 (KHTML, like Gecko) Chrome/98.0.4758.109 Safari/537.36 OPR/84.0.4316.43" etag="EP-lIPqROddsHwV2Ne0G" version="17.2.1" type="github">
  <diagram id="FW4g5HwIK_-cr7-IKV0p" name="Page-1">
    <mxGraphModel dx="997" dy="580" grid="1" gridSize="10" guides="1" tooltips="1" connect="1" arrows="1" fold="1" page="1" pageScale="1" pageWidth="827" pageHeight="1169" math="0" shadow="0">
      <root>
        <mxCell id="0" />
        <mxCell id="1" parent="0" />
        <mxCell id="xUX9h-55Ks003LkP6B5o-2" value="Гостиничный номер" style="ellipse;whiteSpace=wrap;html=1;" vertex="1" parent="1">
          <mxGeometry x="180" y="660" width="90" height="50" as="geometry" />
        </mxCell>
        <mxCell id="xUX9h-55Ks003LkP6B5o-3" value="Клиент" style="rounded=0;whiteSpace=wrap;html=1;gradientColor=none;shadow=0;" vertex="1" parent="1">
          <mxGeometry x="330" y="770" width="150" height="30" as="geometry" />
        </mxCell>
        <mxCell id="xUX9h-55Ks003LkP6B5o-13" value="" style="endArrow=none;html=1;rounded=0;exitX=0.301;exitY=-0.06;exitDx=0;exitDy=0;exitPerimeter=0;" edge="1" parent="1" source="xUX9h-55Ks003LkP6B5o-3">
          <mxGeometry width="50" height="50" relative="1" as="geometry">
            <mxPoint x="350.00000000000006" y="713.39" as="sourcePoint" />
            <mxPoint x="360" y="720" as="targetPoint" />
          </mxGeometry>
        </mxCell>
        <mxCell id="xUX9h-55Ks003LkP6B5o-14" value="Дата заселения" style="ellipse;whiteSpace=wrap;html=1;shadow=0;gradientColor=none;" vertex="1" parent="1">
          <mxGeometry x="310" y="670" width="100.45" height="50" as="geometry" />
        </mxCell>
        <mxCell id="xUX9h-55Ks003LkP6B5o-16" value="Паспортные данные" style="ellipse;whiteSpace=wrap;html=1;shadow=0;gradientColor=none;" vertex="1" parent="1">
          <mxGeometry x="480" y="680" width="90.45" height="40" as="geometry" />
        </mxCell>
        <mxCell id="xUX9h-55Ks003LkP6B5o-17" value="" style="endArrow=none;html=1;rounded=0;exitX=0.75;exitY=0;exitDx=0;exitDy=0;entryX=0.301;entryY=0.985;entryDx=0;entryDy=0;entryPerimeter=0;" edge="1" parent="1" source="xUX9h-55Ks003LkP6B5o-3" target="xUX9h-55Ks003LkP6B5o-16">
          <mxGeometry width="50" height="50" relative="1" as="geometry">
            <mxPoint x="400" y="800" as="sourcePoint" />
            <mxPoint x="450" y="750" as="targetPoint" />
          </mxGeometry>
        </mxCell>
        <mxCell id="xUX9h-55Ks003LkP6B5o-18" value="Статус регистрации" style="ellipse;whiteSpace=wrap;html=1;shadow=0;gradientColor=none;" vertex="1" parent="1">
          <mxGeometry x="600" y="840" width="130" height="50" as="geometry" />
        </mxCell>
        <mxCell id="xUX9h-55Ks003LkP6B5o-19" value="" style="endArrow=none;html=1;rounded=0;entryX=0;entryY=0.5;entryDx=0;entryDy=0;" edge="1" parent="1" target="xUX9h-55Ks003LkP6B5o-18">
          <mxGeometry width="50" height="50" relative="1" as="geometry">
            <mxPoint x="460" y="800" as="sourcePoint" />
            <mxPoint x="517" y="860" as="targetPoint" />
            <Array as="points" />
          </mxGeometry>
        </mxCell>
        <mxCell id="xUX9h-55Ks003LkP6B5o-22" value="" style="endArrow=none;html=1;rounded=0;exitX=1;exitY=0.5;exitDx=0;exitDy=0;" edge="1" parent="1" source="xUX9h-55Ks003LkP6B5o-3">
          <mxGeometry width="50" height="50" relative="1" as="geometry">
            <mxPoint x="400" y="780" as="sourcePoint" />
            <mxPoint x="600" y="790" as="targetPoint" />
          </mxGeometry>
        </mxCell>
        <mxCell id="xUX9h-55Ks003LkP6B5o-23" value="Контакты&amp;nbsp;" style="ellipse;whiteSpace=wrap;html=1;shadow=0;gradientColor=none;" vertex="1" parent="1">
          <mxGeometry x="600" y="770" width="90.45" height="40" as="geometry" />
        </mxCell>
        <mxCell id="xUX9h-55Ks003LkP6B5o-28" value="" style="endArrow=none;html=1;rounded=0;exitX=0;exitY=0;exitDx=0;exitDy=0;entryX=0.705;entryY=0.995;entryDx=0;entryDy=0;entryPerimeter=0;" edge="1" parent="1" source="xUX9h-55Ks003LkP6B5o-3" target="xUX9h-55Ks003LkP6B5o-2">
          <mxGeometry width="50" height="50" relative="1" as="geometry">
            <mxPoint x="400" y="790" as="sourcePoint" />
            <mxPoint x="450" y="740" as="targetPoint" />
          </mxGeometry>
        </mxCell>
        <mxCell id="xUX9h-55Ks003LkP6B5o-29" value="" style="endArrow=none;html=1;rounded=0;" edge="1" parent="1">
          <mxGeometry width="50" height="50" relative="1" as="geometry">
            <mxPoint x="370" y="800" as="sourcePoint" />
            <mxPoint x="320" y="910" as="targetPoint" />
          </mxGeometry>
        </mxCell>
        <mxCell id="xUX9h-55Ks003LkP6B5o-30" value="" style="endArrow=none;html=1;rounded=0;" edge="1" parent="1">
          <mxGeometry width="50" height="50" relative="1" as="geometry">
            <mxPoint x="420" y="800" as="sourcePoint" />
            <mxPoint x="490" y="910" as="targetPoint" />
          </mxGeometry>
        </mxCell>
        <mxCell id="xUX9h-55Ks003LkP6B5o-33" value="" style="shape=link;html=1;rounded=0;" edge="1" parent="1">
          <mxGeometry width="100" relative="1" as="geometry">
            <mxPoint x="280" y="850" as="sourcePoint" />
            <mxPoint x="510" y="850" as="targetPoint" />
            <Array as="points">
              <mxPoint x="300" y="890" />
              <mxPoint x="500" y="890" />
            </Array>
          </mxGeometry>
        </mxCell>
        <mxCell id="xUX9h-55Ks003LkP6B5o-34" value="Клиент с бронью&amp;nbsp;" style="rounded=0;whiteSpace=wrap;html=1;shadow=0;gradientColor=none;" vertex="1" parent="1">
          <mxGeometry x="210" y="910" width="120" height="60" as="geometry" />
        </mxCell>
        <mxCell id="xUX9h-55Ks003LkP6B5o-35" value="Клиент без брони&amp;nbsp;" style="rounded=0;whiteSpace=wrap;html=1;shadow=0;gradientColor=none;" vertex="1" parent="1">
          <mxGeometry x="480" y="910" width="120" height="60" as="geometry" />
        </mxCell>
        <mxCell id="xUX9h-55Ks003LkP6B5o-36" value="" style="endArrow=none;html=1;rounded=0;entryX=0.25;entryY=1;entryDx=0;entryDy=0;" edge="1" parent="1" target="xUX9h-55Ks003LkP6B5o-34">
          <mxGeometry width="50" height="50" relative="1" as="geometry">
            <mxPoint x="210" y="1030" as="sourcePoint" />
            <mxPoint x="440" y="1030" as="targetPoint" />
          </mxGeometry>
        </mxCell>
        <mxCell id="xUX9h-55Ks003LkP6B5o-37" value="Проверка брони" style="ellipse;whiteSpace=wrap;html=1;shadow=0;gradientColor=none;" vertex="1" parent="1">
          <mxGeometry x="130" y="1030" width="120" height="50" as="geometry" />
        </mxCell>
        <mxCell id="xUX9h-55Ks003LkP6B5o-38" value="" style="endArrow=none;html=1;rounded=0;" edge="1" parent="1">
          <mxGeometry width="50" height="50" relative="1" as="geometry">
            <mxPoint x="570" y="1030" as="sourcePoint" />
            <mxPoint x="550.22" y="970" as="targetPoint" />
          </mxGeometry>
        </mxCell>
        <mxCell id="xUX9h-55Ks003LkP6B5o-40" value="Регистрация при заселении" style="ellipse;whiteSpace=wrap;html=1;shadow=0;gradientColor=none;" vertex="1" parent="1">
          <mxGeometry x="530" y="1030" width="110" height="50" as="geometry" />
        </mxCell>
        <mxCell id="xUX9h-55Ks003LkP6B5o-41" value="" style="endArrow=none;html=1;rounded=0;exitX=0;exitY=0.5;exitDx=0;exitDy=0;" edge="1" parent="1" source="xUX9h-55Ks003LkP6B5o-3">
          <mxGeometry width="50" height="50" relative="1" as="geometry">
            <mxPoint x="380" y="780" as="sourcePoint" />
            <mxPoint x="100" y="785" as="targetPoint" />
          </mxGeometry>
        </mxCell>
        <mxCell id="xUX9h-55Ks003LkP6B5o-48" value="" style="endArrow=none;html=1;rounded=0;" edge="1" parent="1" target="xUX9h-55Ks003LkP6B5o-49">
          <mxGeometry width="50" height="50" relative="1" as="geometry">
            <mxPoint x="100" y="790" as="sourcePoint" />
            <mxPoint x="100" y="600" as="targetPoint" />
          </mxGeometry>
        </mxCell>
        <mxCell id="xUX9h-55Ks003LkP6B5o-49" value="1:1" style="rhombus;whiteSpace=wrap;html=1;shadow=0;gradientColor=none;" vertex="1" parent="1">
          <mxGeometry x="60" y="540" width="80" height="80" as="geometry" />
        </mxCell>
        <mxCell id="xUX9h-55Ks003LkP6B5o-50" value="Обслуживание клиентов&amp;nbsp;" style="text;html=1;strokeColor=none;fillColor=none;align=center;verticalAlign=middle;whiteSpace=wrap;rounded=0;shadow=0;" vertex="1" parent="1">
          <mxGeometry x="170" y="565" width="140" height="30" as="geometry" />
        </mxCell>
        <mxCell id="xUX9h-55Ks003LkP6B5o-51" value="" style="endArrow=none;html=1;rounded=0;exitX=0.5;exitY=0;exitDx=0;exitDy=0;" edge="1" parent="1" source="xUX9h-55Ks003LkP6B5o-49">
          <mxGeometry width="50" height="50" relative="1" as="geometry">
            <mxPoint x="380" y="580" as="sourcePoint" />
            <mxPoint x="100" y="400" as="targetPoint" />
          </mxGeometry>
        </mxCell>
        <mxCell id="xUX9h-55Ks003LkP6B5o-52" value="" style="endArrow=none;html=1;rounded=0;" edge="1" parent="1" target="xUX9h-55Ks003LkP6B5o-53">
          <mxGeometry width="50" height="50" relative="1" as="geometry">
            <mxPoint x="100" y="400" as="sourcePoint" />
            <mxPoint x="280" y="400" as="targetPoint" />
          </mxGeometry>
        </mxCell>
        <mxCell id="xUX9h-55Ks003LkP6B5o-53" value="Бронь&amp;nbsp;" style="rounded=0;whiteSpace=wrap;html=1;shadow=0;gradientColor=none;" vertex="1" parent="1">
          <mxGeometry x="280.45" y="380" width="239.55" height="40" as="geometry" />
        </mxCell>
        <mxCell id="xUX9h-55Ks003LkP6B5o-54" value="Гостиничный номер" style="ellipse;whiteSpace=wrap;html=1;" vertex="1" parent="1">
          <mxGeometry x="210" y="240" width="80" height="40" as="geometry" />
        </mxCell>
        <mxCell id="xUX9h-55Ks003LkP6B5o-56" value="Паспортные данные" style="ellipse;whiteSpace=wrap;html=1;shadow=0;gradientColor=none;" vertex="1" parent="1">
          <mxGeometry x="368" y="240" width="90.45" height="40" as="geometry" />
        </mxCell>
        <mxCell id="xUX9h-55Ks003LkP6B5o-57" value="Контакты&amp;nbsp;" style="ellipse;whiteSpace=wrap;html=1;shadow=0;gradientColor=none;" vertex="1" parent="1">
          <mxGeometry x="560" y="260" width="90.45" height="40" as="geometry" />
        </mxCell>
        <mxCell id="xUX9h-55Ks003LkP6B5o-58" value="Дата бронирования" style="ellipse;whiteSpace=wrap;html=1;shadow=0;gradientColor=none;" vertex="1" parent="1">
          <mxGeometry x="630" y="400" width="90.45" height="40" as="geometry" />
        </mxCell>
        <mxCell id="xUX9h-55Ks003LkP6B5o-59" value="Статус возврата" style="ellipse;whiteSpace=wrap;html=1;shadow=0;gradientColor=none;" vertex="1" parent="1">
          <mxGeometry x="368" y="490" width="130" height="50" as="geometry" />
        </mxCell>
        <mxCell id="xUX9h-55Ks003LkP6B5o-60" value="" style="endArrow=none;html=1;rounded=0;exitX=0.177;exitY=-0.025;exitDx=0;exitDy=0;exitPerimeter=0;entryX=0.61;entryY=1.075;entryDx=0;entryDy=0;entryPerimeter=0;" edge="1" parent="1" source="xUX9h-55Ks003LkP6B5o-53" target="xUX9h-55Ks003LkP6B5o-54">
          <mxGeometry width="50" height="50" relative="1" as="geometry">
            <mxPoint x="380" y="450" as="sourcePoint" />
            <mxPoint x="430" y="400" as="targetPoint" />
          </mxGeometry>
        </mxCell>
        <mxCell id="xUX9h-55Ks003LkP6B5o-61" value="" style="endArrow=none;html=1;rounded=0;exitX=0.5;exitY=0;exitDx=0;exitDy=0;entryX=0.429;entryY=1.015;entryDx=0;entryDy=0;entryPerimeter=0;" edge="1" parent="1" source="xUX9h-55Ks003LkP6B5o-53" target="xUX9h-55Ks003LkP6B5o-56">
          <mxGeometry width="50" height="50" relative="1" as="geometry">
            <mxPoint x="332.85035000000016" y="389" as="sourcePoint" />
            <mxPoint x="268.79999999999995" y="293" as="targetPoint" />
          </mxGeometry>
        </mxCell>
        <mxCell id="xUX9h-55Ks003LkP6B5o-62" value="" style="endArrow=none;html=1;rounded=0;exitX=0.75;exitY=0;exitDx=0;exitDy=0;entryX=0;entryY=1;entryDx=0;entryDy=0;" edge="1" parent="1" source="xUX9h-55Ks003LkP6B5o-53" target="xUX9h-55Ks003LkP6B5o-57">
          <mxGeometry width="50" height="50" relative="1" as="geometry">
            <mxPoint x="342.85035000000016" y="399" as="sourcePoint" />
            <mxPoint x="278.79999999999995" y="303" as="targetPoint" />
          </mxGeometry>
        </mxCell>
        <mxCell id="xUX9h-55Ks003LkP6B5o-63" value="" style="endArrow=none;html=1;rounded=0;exitX=1;exitY=0.5;exitDx=0;exitDy=0;entryX=0;entryY=0;entryDx=0;entryDy=0;" edge="1" parent="1" source="xUX9h-55Ks003LkP6B5o-53" target="xUX9h-55Ks003LkP6B5o-58">
          <mxGeometry width="50" height="50" relative="1" as="geometry">
            <mxPoint x="470.1125000000002" y="390" as="sourcePoint" />
            <mxPoint x="583.3259428994072" y="304.1773587113745" as="targetPoint" />
          </mxGeometry>
        </mxCell>
        <mxCell id="xUX9h-55Ks003LkP6B5o-64" value="" style="endArrow=none;html=1;rounded=0;exitX=0.594;exitY=0.995;exitDx=0;exitDy=0;entryX=0.5;entryY=0;entryDx=0;entryDy=0;exitPerimeter=0;" edge="1" parent="1" source="xUX9h-55Ks003LkP6B5o-53" target="xUX9h-55Ks003LkP6B5o-59">
          <mxGeometry width="50" height="50" relative="1" as="geometry">
            <mxPoint x="480.1125000000002" y="400" as="sourcePoint" />
            <mxPoint x="593.3259428994072" y="314.1773587113745" as="targetPoint" />
          </mxGeometry>
        </mxCell>
        <mxCell id="xUX9h-55Ks003LkP6B5o-66" value="Дата выселения&amp;nbsp;" style="ellipse;whiteSpace=wrap;html=1;shadow=0;gradientColor=none;" vertex="1" parent="1">
          <mxGeometry x="160" y="440" width="90.45" height="40" as="geometry" />
        </mxCell>
        <mxCell id="xUX9h-55Ks003LkP6B5o-67" value="Дата заселения" style="ellipse;whiteSpace=wrap;html=1;shadow=0;gradientColor=none;" vertex="1" parent="1">
          <mxGeometry x="250.45" y="495" width="90.45" height="40" as="geometry" />
        </mxCell>
        <mxCell id="xUX9h-55Ks003LkP6B5o-68" value="" style="endArrow=none;html=1;rounded=0;exitX=0.082;exitY=1;exitDx=0;exitDy=0;exitPerimeter=0;entryX=1;entryY=0;entryDx=0;entryDy=0;" edge="1" parent="1" source="xUX9h-55Ks003LkP6B5o-53" target="xUX9h-55Ks003LkP6B5o-66">
          <mxGeometry width="50" height="50" relative="1" as="geometry">
            <mxPoint x="332.85035000000016" y="389" as="sourcePoint" />
            <mxPoint x="268.79999999999995" y="293" as="targetPoint" />
          </mxGeometry>
        </mxCell>
        <mxCell id="xUX9h-55Ks003LkP6B5o-69" value="" style="endArrow=none;html=1;rounded=0;exitX=0.31;exitY=1.015;exitDx=0;exitDy=0;exitPerimeter=0;entryX=0.5;entryY=0;entryDx=0;entryDy=0;" edge="1" parent="1" source="xUX9h-55Ks003LkP6B5o-53" target="xUX9h-55Ks003LkP6B5o-67">
          <mxGeometry width="50" height="50" relative="1" as="geometry">
            <mxPoint x="310.09310000000005" y="430" as="sourcePoint" />
            <mxPoint x="247.12405710060148" y="455.8226412886215" as="targetPoint" />
          </mxGeometry>
        </mxCell>
        <mxCell id="xUX9h-55Ks003LkP6B5o-70" value="" style="endArrow=none;html=1;rounded=0;" edge="1" parent="1">
          <mxGeometry width="50" height="50" relative="1" as="geometry">
            <mxPoint x="239.5" y="820" as="sourcePoint" />
            <mxPoint x="239.5" y="750" as="targetPoint" />
          </mxGeometry>
        </mxCell>
        <mxCell id="xUX9h-55Ks003LkP6B5o-71" value="" style="endArrow=none;html=1;rounded=0;" edge="1" parent="1">
          <mxGeometry width="50" height="50" relative="1" as="geometry">
            <mxPoint x="239.5" y="430" as="sourcePoint" />
            <mxPoint x="239.5" y="360" as="targetPoint" />
          </mxGeometry>
        </mxCell>
        <mxCell id="xUX9h-55Ks003LkP6B5o-72" value="" style="endArrow=none;html=1;rounded=0;exitX=0.868;exitY=1.075;exitDx=0;exitDy=0;exitPerimeter=0;" edge="1" parent="1" source="xUX9h-55Ks003LkP6B5o-53" target="xUX9h-55Ks003LkP6B5o-73">
          <mxGeometry width="50" height="50" relative="1" as="geometry">
            <mxPoint x="432.7427" y="429.79999999999995" as="sourcePoint" />
            <mxPoint x="590" y="490" as="targetPoint" />
          </mxGeometry>
        </mxCell>
        <mxCell id="xUX9h-55Ks003LkP6B5o-73" value="Количество комнат&amp;nbsp;" style="ellipse;whiteSpace=wrap;html=1;shadow=0;gradientColor=none;" vertex="1" parent="1">
          <mxGeometry x="560" y="470" width="100" height="50" as="geometry" />
        </mxCell>
      </root>
    </mxGraphModel>
  </diagram>
</mxfile>
